<?xml version="1.0" standalone="no"?>
<!DOCTYPE svg PUBLIC "-//W3C//DTD SVG 20010904//EN"
 "http://www.w3.org/TR/2001/REC-SVG-20010904/DTD/svg10.dtd">
<svg version="1.0" xmlns="http://www.w3.org/2000/svg"
 width="1024.000000pt" height="1024.000000pt" viewBox="0 0 1024.000000 1024.000000"
 preserveAspectRatio="xMidYMid meet">
<metadata>
Created by potrace 1.14, written by Peter Selinger 2001-2017
</metadata>
<g transform="translate(0.000000,1024.000000) scale(0.100000,-0.100000)"
fill="#000000" stroke="none">
<path d="M4819 10086 c-2 -2 -47 -6 -99 -10 -52 -4 -106 -8 -120 -11 -14 -2
-45 -7 -70 -9 -284 -32 -649 -151 -880 -288 -42 -25 -143 -91 -150 -98 -3 -3
-25 -21 -50 -40 -280 -216 -489 -534 -574 -875 -33 -132 -37 -166 -42 -320 -8
-288 85 -529 285 -734 263 -271 570 -400 1221 -515 132 -23 382 -87 505 -129
159 -55 330 -155 408 -241 45 -49 101 -138 116 -184 13 -38 17 -42 46 -42 32
0 172 -37 230 -61 17 -7 33 -12 38 -11 4 1 7 -3 7 -9 0 -5 5 -7 10 -4 6 3 10
1 10 -5 0 -6 4 -9 9 -5 5 3 13 0 16 -5 7 -11 55 -33 64 -30 2 1 7 -2 10 -7 3
-5 29 -23 56 -40 28 -18 67 -47 88 -66 20 -19 37 -32 37 -29 0 3 8 -2 19 -12
17 -16 19 -13 32 61 21 114 18 367 -5 473 -36 170 -92 294 -193 428 -211 278
-607 482 -1138 586 -44 9 -185 36 -313 61 -339 66 -515 129 -664 237 -170 124
-250 282 -244 483 11 349 272 676 653 815 82 30 172 55 233 65 19 3 42 8 50
10 111 32 597 39 800 11 14 -2 50 -7 80 -11 44 -5 249 -46 295 -59 184 -50
307 -100 567 -228 l176 -87 12 32 c7 18 16 41 21 52 4 11 28 72 53 135 24 63
65 168 90 233 25 65 46 120 46 122 0 9 -248 119 -375 167 -156 58 -342 114
-445 132 -14 2 -36 7 -50 10 -37 9 -76 15 -165 26 -44 5 -102 12 -130 16 -53
6 -570 16 -576 10z"/>
<path d="M5088 6515 c-2 -1 -28 -5 -58 -8 -174 -19 -387 -88 -585 -189 -77
-40 -218 -127 -270 -167 -22 -17 -53 -41 -70 -54 -83 -62 -216 -195 -305 -306
-42 -53 -198 -268 -210 -292 -11 -19 9 -24 160 -35 241 -18 486 -7 540 24 255
151 613 223 915 186 138 -17 158 -21 258 -55 327 -108 564 -316 731 -639 140
-270 246 -672 281 -1065 4 -38 8 -81 10 -94 19 -117 27 -738 13 -959 -7 -104
-15 -136 -97 -400 -98 -312 -180 -586 -235 -782 -42 -151 -146 -554 -152 -590
-3 -14 -12 -54 -20 -90 -22 -93 -36 -167 -59 -310 -22 -138 -25 -331 -6 -398
19 -67 67 -113 123 -119 67 -8 115 13 174 72 64 67 118 175 183 370 72 216
189 650 237 880 2 11 6 29 9 40 10 38 86 410 90 440 2 17 11 71 20 120 22 124
23 133 30 190 4 28 8 57 10 65 2 8 7 40 10 70 4 30 9 58 10 61 2 3 7 28 10 55
23 179 60 314 165 609 53 150 268 698 400 1020 65 159 291 683 375 870 138
308 205 452 311 672 l64 132 0 291 0 292 -47 -4 c-46 -3 -50 -6 -84 -58 -81
-123 -322 -601 -476 -945 -24 -55 -57 -127 -73 -160 -73 -153 -285 -653 -402
-945 -77 -191 -190 -452 -194 -447 -1 1 -5 43 -9 92 -8 124 -22 219 -61 430
-46 254 -125 559 -214 825 -109 329 -253 623 -399 815 -179 236 -429 406 -701
476 -37 9 -393 22 -402 14z"/>
<path d="M2199 5630 l-117 -309 37 -22 c376 -227 735 -362 1136 -428 233 -38
338 -46 620 -46 232 0 370 9 495 31 14 2 43 7 65 10 48 7 260 59 330 81 286
91 555 250 768 454 65 63 79 81 67 89 -14 9 -189 69 -220 75 -8 2 -35 8 -60
13 -78 18 -171 26 -285 25 -109 -1 -111 -1 -185 -41 -222 -120 -511 -184 -835
-185 -108 -1 -344 10 -384 18 -18 3 -90 14 -136 21 -100 15 -298 65 -410 105
-220 78 -384 162 -612 315 -85 57 -155 104 -156 104 -1 0 -54 -140 -118 -310z"/>
<path d="M3264 4757 c3 -43 10 -53 49 -74 41 -22 259 -26 294 -5 20 11 42 57
32 66 -2 2 -43 6 -90 9 -85 7 -209 22 -260 33 -25 5 -27 3 -25 -29z"/>
</g>
</svg>
