<svg id="Layer_1" xmlns="http://www.w3.org/2000/svg" xmlns:xlink="http://www.w3.org/1999/xlink" x="0px" y="0px" viewBox="0 0 400 400" xml:space="preserve" class="home-logo"><style type="text/css">
	.st0{display:none;}
	.st1{display:inline;fill:url(#SVGID_1_);}
	.st2{display:inline;fill:url(#SVGID_2_);}
	.st3{display:inline;fill:url(#SVGID_3_);}
	.st4{fill:url(#SVGID_4_);}
	.st5{fill:url(#SVGID_5_);}
	.st6{fill:url(#SVGID_6_);}
	.st7{fill:url(#SVGID_7_);}
	.st8{fill:url(#SVGID_8_);}
	.st9{fill:url(#SVGID_9_);}
	.st10{fill:#061B32;}
	.st11{fill:#328EF5;}
	.st12{display:inline;}
	.st13{fill:#FF0000;}
</style><g id="Layer_3"><g class="st0"><linearGradient id="SVGID_1_" gradientUnits="userSpaceOnUse" x1="111.8559" y1="204.6991" x2="154.967" y2="204.6991" gradientTransform="matrix(1 0 0 -1 0 400)"><stop offset="0" style="stop-color: rgb(50, 142, 245);"></stop><stop offset="1" style="stop-color: rgb(6, 27, 50);"></stop></linearGradient><path class="st1" d="M115.9,230.2c-2.8,2.8-4.6,1.9-3.8-2l11.9-65.7c0.7-3.9,3.6-4.8,6.4-2l22.4,22.4c2.8,2.8,2.8,7.5,0,10.3 L115.9,230.2z"></path></g><g class="st0"><linearGradient id="SVGID_2_" gradientUnits="userSpaceOnUse" x1="160.0678" y1="251.1048" x2="205.4001" y2="251.1048" gradientTransform="matrix(1.0886 4.210000e-02 -0.1297 -1.0816 18.3623 414.658)"><stop offset="0" style="stop-color: rgb(50, 142, 245);"></stop><stop offset="1" style="stop-color: rgb(6, 27, 50);"></stop></linearGradient><path class="st2" d="M160.7,143.7c-2.9-2.7-2.1-4.9,1.9-5l41.6-0.1c4,0,5,2.4,2.3,5.3l-16,17.4c-2.7,2.9-7.3,3.1-10.3,0.4 L160.7,143.7z"></path></g><g class="st0"><linearGradient id="SVGID_3_" gradientUnits="userSpaceOnUse" x1="132.2708" y1="251.6037" x2="198.9849" y2="251.6037" gradientTransform="matrix(0.9983 3.110000e-02 -3.110000e-02 -0.9983 15.5617 402.4278)"><stop offset="0" style="stop-color: rgb(6, 27, 50);"></stop><stop offset="1" style="stop-color: rgb(50, 142, 245);"></stop></linearGradient><path class="st3" d="M141,145.7c-2.8-2.8-1.9-5.2,2.1-5.2l59-0.7c4,0,5,2.2,2.1,5.1l-26.9,26.9c-2.8,2.8-7.5,2.8-10.3,0L141,145.7 z"></path></g><g><linearGradient id="SVGID_4_" gradientUnits="userSpaceOnUse" x1="797.0406" y1="294.955" x2="842.3377" y2="294.955" gradientTransform="matrix(0.9946 3.630000e-02 -3.630000e-02 -0.7565 7.6685 348.5706)"><stop offset="0" style="stop-color: rgb(27, 51, 80);"></stop><stop offset="0.6797" style="stop-color: rgb(50, 142, 245); stop-opacity: 0.75;"></stop></linearGradient><path class="st4" d="M794.3,176.1c-4-0.6-4.9-3.4-2-6.2l37.2-36.9c2.8-2.8,4.7-1.9,4.1,2.1l-5.8,38.7c-0.6,4-4.3,6.7-8.3,6.1 L794.3,176.1z"></path></g><g><linearGradient id="SVGID_5_" gradientUnits="userSpaceOnUse" x1="788.0205" y1="255.7686" x2="834.0436" y2="255.7686" gradientTransform="matrix(1 0 0 -1 0 400)"><stop offset="0" style="stop-color: rgb(50, 142, 245);"></stop><stop offset="0.5288" style="stop-color: rgb(49, 139, 240);"></stop><stop offset="1" style="stop-color: rgb(26, 51, 80);"></stop></linearGradient><path class="st5" d="M792,173.3c-4-0.6-5.2-3.7-2.7-6.8l41.3-53.2c2.5-3.2,4-2.5,3.4,1.4l-8.4,56.2c-0.6,4-4.3,6.7-8.3,6.1 L792,173.3z"></path></g><g><linearGradient id="SVGID_6_" gradientUnits="userSpaceOnUse" x1="624.2754" y1="981.6683" x2="668.7795" y2="981.6683" gradientTransform="matrix(0.8063 0.5786 0.2416 -0.5118 43.4174 236.4618)"><stop offset="0.6837" style="stop-color: rgb(50, 142, 245); stop-opacity: 0.75;"></stop><stop offset="1" style="stop-color: rgb(27, 51, 81);"></stop></linearGradient><path class="st6" d="M779.7,111.4c-3-2.6-2.3-4.9,1.7-5.2l41.6-3c4-0.3,5.1,2,2.5,5l-16.1,19c-2.6,3-7.2,3.4-10.3,0.8L779.7,111.4 z"></path></g><g><linearGradient id="SVGID_7_" gradientUnits="userSpaceOnUse" x1="591.866" y1="781.551" x2="637.1173" y2="781.551" gradientTransform="matrix(0.8238 0.558 0.3589 -0.6498 18.6414 265.6155)"><stop offset="0" style="stop-color: rgb(27, 51, 81);"></stop><stop offset="1" style="stop-color: rgb(50, 142, 245);"></stop></linearGradient><path class="st7" d="M779.4,108.6c-3-2.6-2.3-5.4,1.6-6.3l50.3-11c3.9-0.9,5,0.9,2.4,4l-24.6,28.9c-2.6,3-7.2,3.4-10.3,0.8 L779.4,108.6z"></path></g><g><linearGradient id="SVGID_8_" gradientUnits="userSpaceOnUse" x1="442.2363" y1="-651.5918" x2="486.9044" y2="-651.5918" gradientTransform="matrix(0.7095 0.6946 -0.4825 0.3552 132.0415 50.4222)"><stop offset="0" style="stop-color: rgb(26, 51, 80);"></stop><stop offset="0.5348" style="stop-color: rgb(50, 142, 245); stop-opacity: 0.75;"></stop></linearGradient><path class="st8" d="M776,118.4c-3.1-2.5-5.4-1.4-5.1,2.6l3.3,43.3c0.3,4,2.6,4.7,5.2,1.6l17.4-21.2c2.5-3.1,2.1-7.7-1-10.2 L776,118.4z"></path></g><g><linearGradient id="SVGID_9_" gradientUnits="userSpaceOnUse" x1="469.9118" y1="-447.4825" x2="515.3067" y2="-447.4825" gradientTransform="matrix(0.6913 0.7167 -0.6046 0.504 157.8239 18.9814)"><stop offset="0.2914" style="stop-color: rgb(46, 131, 227);"></stop><stop offset="0.3671" style="stop-color: rgb(46, 131, 227);"></stop><stop offset="0.9988" style="stop-color: rgb(26, 51, 80);"></stop><stop offset="1" style="stop-color: rgb(50, 142, 245); stop-opacity: 0;"></stop></linearGradient><path class="st9" d="M773.1,118.4c-3.1-2.5-5.8-1.4-6.1,2.6l-3.5,54.1c-0.3,4,1.6,4.7,4.1,1.6l26.2-31.9c2.5-3.1,2.1-7.7-1-10.2 L773.1,118.4z"></path></g><g><path class="st10" d="M201.6,348c-16.9-2.7-19.5-13.3-5.8-23.6l107-79.8c13.7-10.3,22.8-4.8,20.1,12.1l-12.4,77.2 c-2.7,16.9-18.8,28.6-35.7,25.8L201.6,348z"></path></g><g><path class="st11" d="M190,337.5c-17-2.3-21.5-14.7-10.1-27.5L295,181.1c11.4-12.8,18.9-9.4,16.5,7.6l-18,131.5 c-2.3,17-18.1,29-35.1,26.7L190,337.5z"></path></g><g><path class="st10" d="M151.1,132.1c-12.8-11.4-9.3-21.7,7.8-23l133.1-10c17.1-1.3,21.8,8.2,10.4,21l-51.8,58.5 c-11.4,12.8-31.2,14-44,2.6L151.1,132.1z"></path></g><g><path class="st11" d="M146.9,117c-13.1-11.1-10.3-23.9,6.2-28.6l166.3-47c16.5-4.7,20.9,2.2,9.9,15.3L243.6,158 c-11.1,13.1-30.8,14.7-43.9,3.7L146.9,117z"></path></g><g><path class="st10" d="M136.2,305.1c-11.3,12.9-21.7,9.4-23-7.7l-10.5-133.1c-1.4-17.1,8.1-21.8,21-10.5l58.7,51.6 c12.9,11.3,14.2,31.1,2.8,44L136.2,305.1z"></path></g><g><path class="st11" d="M121.1,309.3c-11,13.1-23.9,10.4-28.6-6.1L44.7,137.1c-4.7-16.5,2.1-20.9,15.3-9.9l101.7,85.3 c13.1,11,14.9,30.8,3.9,43.9L121.1,309.3z"></path></g></g><g id="Layer_4" class="st0"><g class="st12"><path class="st13" d="M179.3,175.3c2.3,2.3,2.8,5.7,1,7.4c-1.8,1.8-5.1,1.3-7.4-1l-37.4-37.4c-2.3-2.3-2.8-5.7-1-7.4 c1.8-1.8,5.1-1.3,7.4,1L179.3,175.3z"></path></g><g class="st12"><path class="st13" d="M192.8,161.8c2.3,2.3,2.8,5.7,1,7.5c-1.8,1.8-5.1,1.3-7.5-1l-26.7-26.7c-2.3-2.3-2.8-5.7-1-7.5 c1.8-1.8,5.1-1.3,7.5,1L192.8,161.8z"></path></g><g class="st12"><path class="st13" d="M203.8,149.8c2.3,2.3,2.8,5.7,1.1,7.4s-5.1,1.2-7.4-1.1l-13.7-13.7c-2.3-2.3-2.8-5.7-1.1-7.4 c1.7-1.7,5.1-1.2,7.4,1.1L203.8,149.8z"></path></g><g class="st12"><ellipse transform="matrix(0.7071 -0.7071 0.7071 0.7071 -31.9056 196.0942)" class="st13" cx="220.8" cy="136.6" rx="4.1" ry="4"></ellipse></g><g class="st12"><path class="st13" d="M128,201.4c-1.7,0-3-1.4-3-3l0,0c0-1.6,1.3-3,3-3h31.8c1.6,0,3,1.4,3,3s-1.4,3-3,3H128z"></path></g><g class="st12"><path class="st13" d="M128.2,189c-1.7,0-3-1.4-3-3s1.3-3,3-3H148c1.6,0,3,1.4,3,3s-1.4,3-3,3H128.2z"></path></g><g class="st12"><path class="st13" d="M128.1,214.4c-1.7,0-3-1.4-3-3s1.3-3,3-3h19.8c1.6,0,3,1.4,3,3s-1.4,3-3,3H128.1z"></path></g><g class="st12"><path class="st13" d="M128.1,176.4c-1.7,0-3-1.4-3-3s1.3-3,3-3h7.9c1.6,0,3,1.4,3,3s-1.4,3-3,3H128.1z"></path></g><g class="st12"><path class="st13" d="M127.8,227.8c-1.7,0-3-1.4-3-3s1.3-3,3-3h7.9c1.6,0,3,1.4,3,3s-1.4,3-3,3H127.8z"></path></g><g class="st12"><path class="st13" d="M214.3,140.2c2.3,2.3,2.8,5.7,1.1,7.4c-1.7,1.7-5.1,1.2-7.4-1.1l-5.8-5.8c-2.3-2.3-2.8-5.7-1.1-7.4 c1.7-1.7,5.1-1.2,7.4,1.1L214.3,140.2z"></path></g></g></svg>